<?xml version="1.0" encoding="UTF-8" standalone="no"?>
<!DOCTYPE svg PUBLIC "-//W3C//DTD SVG 1.1//EN"
 "http://www.w3.org/Graphics/SVG/1.1/DTD/svg11.dtd">
<!-- Generated by graphviz version 2.43.0 (0)
 -->
<!-- Title: Preprocessing_Module Pages: 1 -->
<svg width="617pt" height="476pt"
 viewBox="0.00 0.00 616.50 476.00" xmlns="http://www.w3.org/2000/svg" xmlns:xlink="http://www.w3.org/1999/xlink">
<g id="graph0" class="graph" transform="scale(1 1) rotate(0) translate(4 472)">
<title>Preprocessing_Module</title>
<polygon fill="white" stroke="transparent" points="-4,4 -4,-472 612.5,-472 612.5,4 -4,4"/>
<!-- det -->
<g id="node1" class="node">
<title>det</title>
<path fill="#e0f2fe" stroke="#334155" stroke-width="1.2" d="M395.5,-468C395.5,-468 271.5,-468 271.5,-468 265.5,-468 259.5,-462 259.5,-456 259.5,-456 259.5,-444 259.5,-444 259.5,-438 265.5,-432 271.5,-432 271.5,-432 395.5,-432 395.5,-432 401.5,-432 407.5,-438 407.5,-444 407.5,-444 407.5,-456 407.5,-456 407.5,-462 401.5,-468 395.5,-468"/>
<text text-anchor="middle" x="333.5" y="-447.2" font-family="Helvetica,sans-Serif" font-size="11.00" fill="#0f172a">Detect Type &amp; Encoding</text>
</g>
<!-- pdftext -->
<g id="node2" class="node">
<title>pdftext</title>
<path fill="#fde68a" stroke="#334155" stroke-width="1.2" d="M121,-396C121,-396 12,-396 12,-396 6,-396 0,-390 0,-384 0,-384 0,-372 0,-372 0,-366 6,-360 12,-360 12,-360 121,-360 121,-360 127,-360 133,-366 133,-372 133,-372 133,-384 133,-384 133,-390 127,-396 121,-396"/>
<text text-anchor="middle" x="66.5" y="-381.2" font-family="Helvetica,sans-Serif" font-size="11.00" fill="#0f172a">PDF (text)</text>
<text text-anchor="middle" x="66.5" y="-369.2" font-family="Helvetica,sans-Serif" font-size="11.00" fill="#0f172a">→ PyMuPDF/pdfminer</text>
</g>
<!-- det&#45;&gt;pdftext -->
<g id="edge1" class="edge">
<title>det&#45;&gt;pdftext</title>
<path fill="none" stroke="#6b7280" stroke-width="1.2" d="M268.53,-431.97C229.27,-421.67 179.18,-408.54 138.69,-397.93"/>
<polygon fill="#6b7280" stroke="#6b7280" stroke-width="1.2" points="139.16,-395.52 131.77,-396.11 137.92,-400.26 139.16,-395.52"/>
</g>
<!-- pdfscan -->
<g id="node3" class="node">
<title>pdfscan</title>
<path fill="#bbf7d0" stroke="#334155" stroke-width="1.2" d="M330.5,-396C330.5,-396 170.5,-396 170.5,-396 164.5,-396 158.5,-390 158.5,-384 158.5,-384 158.5,-372 158.5,-372 158.5,-366 164.5,-360 170.5,-360 170.5,-360 330.5,-360 330.5,-360 336.5,-360 342.5,-366 342.5,-372 342.5,-372 342.5,-384 342.5,-384 342.5,-390 336.5,-396 330.5,-396"/>
<text text-anchor="middle" x="250.5" y="-381.2" font-family="Helvetica,sans-Serif" font-size="11.00" fill="#0f172a">PDF (scanned)</text>
<text text-anchor="middle" x="250.5" y="-369.2" font-family="Helvetica,sans-Serif" font-size="11.00" fill="#0f172a">→ OCR (Tesseract/OCRmyPDF)</text>
</g>
<!-- det&#45;&gt;pdfscan -->
<g id="edge2" class="edge">
<title>det&#45;&gt;pdfscan</title>
<path fill="none" stroke="#6b7280" stroke-width="1.2" d="M312.98,-431.7C301.93,-422.37 288.17,-410.77 276.39,-400.83"/>
<polygon fill="#6b7280" stroke="#6b7280" stroke-width="1.2" points="277.71,-398.74 270.78,-396.1 274.55,-402.49 277.71,-398.74"/>
</g>
<!-- docx -->
<g id="node4" class="node">
<title>docx</title>
<path fill="#fca5a5" stroke="#334155" stroke-width="1.2" d="M453.5,-396C453.5,-396 379.5,-396 379.5,-396 373.5,-396 367.5,-390 367.5,-384 367.5,-384 367.5,-372 367.5,-372 367.5,-366 373.5,-360 379.5,-360 379.5,-360 453.5,-360 453.5,-360 459.5,-360 465.5,-366 465.5,-372 465.5,-372 465.5,-384 465.5,-384 465.5,-390 459.5,-396 453.5,-396"/>
<text text-anchor="middle" x="416.5" y="-381.2" font-family="Helvetica,sans-Serif" font-size="11.00" fill="#0f172a">DOCX</text>
<text text-anchor="middle" x="416.5" y="-369.2" font-family="Helvetica,sans-Serif" font-size="11.00" fill="#0f172a">→ python&#45;docx</text>
</g>
<!-- det&#45;&gt;docx -->
<g id="edge3" class="edge">
<title>det&#45;&gt;docx</title>
<path fill="none" stroke="#6b7280" stroke-width="1.2" d="M354.02,-431.7C365.07,-422.37 378.83,-410.77 390.61,-400.83"/>
<polygon fill="#6b7280" stroke="#6b7280" stroke-width="1.2" points="392.45,-402.49 396.22,-396.1 389.29,-398.74 392.45,-402.49"/>
</g>
<!-- img -->
<g id="node5" class="node">
<title>img</title>
<path fill="#ddd6fe" stroke="#334155" stroke-width="1.2" d="M596.5,-396C596.5,-396 502.5,-396 502.5,-396 496.5,-396 490.5,-390 490.5,-384 490.5,-384 490.5,-372 490.5,-372 490.5,-366 496.5,-360 502.5,-360 502.5,-360 596.5,-360 596.5,-360 602.5,-360 608.5,-366 608.5,-372 608.5,-372 608.5,-384 608.5,-384 608.5,-390 602.5,-396 596.5,-396"/>
<text text-anchor="middle" x="549.5" y="-381.2" font-family="Helvetica,sans-Serif" font-size="11.00" fill="#0f172a">Image</text>
<text text-anchor="middle" x="549.5" y="-369.2" font-family="Helvetica,sans-Serif" font-size="11.00" fill="#0f172a">→ OCR (Tesseract)</text>
</g>
<!-- det&#45;&gt;img -->
<g id="edge4" class="edge">
<title>det&#45;&gt;img</title>
<path fill="none" stroke="#6b7280" stroke-width="1.2" d="M386.06,-431.97C417.42,-421.8 457.34,-408.87 489.88,-398.32"/>
<polygon fill="#6b7280" stroke="#6b7280" stroke-width="1.2" points="490.8,-400.6 496.7,-396.11 489.29,-395.94 490.8,-400.6"/>
</g>
<!-- merge -->
<g id="node6" class="node">
<title>merge</title>
<path fill="#fecaca" stroke="#334155" stroke-width="1.2" d="M403,-324C403,-324 264,-324 264,-324 258,-324 252,-318 252,-312 252,-312 252,-300 252,-300 252,-294 258,-288 264,-288 264,-288 403,-288 403,-288 409,-288 415,-294 415,-300 415,-300 415,-312 415,-312 415,-318 409,-324 403,-324"/>
<text text-anchor="middle" x="333.5" y="-309.2" font-family="Helvetica,sans-Serif" font-size="11.00" fill="#0f172a">Merge Content</text>
<text text-anchor="middle" x="333.5" y="-297.2" font-family="Helvetica,sans-Serif" font-size="11.00" fill="#0f172a">(text/pages/tables/coords)</text>
</g>
<!-- pdftext&#45;&gt;merge -->
<g id="edge5" class="edge">
<title>pdftext&#45;&gt;merge</title>
<path fill="none" stroke="#6b7280" stroke-width="1.2" d="M131.47,-359.97C170.73,-349.67 220.82,-336.54 261.31,-325.93"/>
<polygon fill="#6b7280" stroke="#6b7280" stroke-width="1.2" points="262.08,-328.26 268.23,-324.11 260.84,-323.52 262.08,-328.26"/>
</g>
<!-- pdfscan&#45;&gt;merge -->
<g id="edge6" class="edge">
<title>pdfscan&#45;&gt;merge</title>
<path fill="none" stroke="#6b7280" stroke-width="1.2" d="M271.02,-359.7C282.07,-350.37 295.83,-338.77 307.61,-328.83"/>
<polygon fill="#6b7280" stroke="#6b7280" stroke-width="1.2" points="309.45,-330.49 313.22,-324.1 306.29,-326.74 309.45,-330.49"/>
</g>
<!-- docx&#45;&gt;merge -->
<g id="edge7" class="edge">
<title>docx&#45;&gt;merge</title>
<path fill="none" stroke="#6b7280" stroke-width="1.2" d="M395.98,-359.7C384.93,-350.37 371.17,-338.77 359.39,-328.83"/>
<polygon fill="#6b7280" stroke="#6b7280" stroke-width="1.2" points="360.71,-326.74 353.78,-324.1 357.55,-330.49 360.71,-326.74"/>
</g>
<!-- img&#45;&gt;merge -->
<g id="edge8" class="edge">
<title>img&#45;&gt;merge</title>
<path fill="none" stroke="#6b7280" stroke-width="1.2" d="M496.94,-359.97C465.58,-349.8 425.66,-336.87 393.12,-326.32"/>
<polygon fill="#6b7280" stroke="#6b7280" stroke-width="1.2" points="393.71,-323.94 386.3,-324.11 392.2,-328.6 393.71,-323.94"/>
</g>
<!-- clean -->
<g id="node7" class="node">
<title>clean</title>
<path fill="#fef9c3" stroke="#334155" stroke-width="1.2" d="M430.5,-252C430.5,-252 236.5,-252 236.5,-252 230.5,-252 224.5,-246 224.5,-240 224.5,-240 224.5,-228 224.5,-228 224.5,-222 230.5,-216 236.5,-216 236.5,-216 430.5,-216 430.5,-216 436.5,-216 442.5,-222 442.5,-228 442.5,-228 442.5,-240 442.5,-240 442.5,-246 436.5,-252 430.5,-252"/>
<text text-anchor="middle" x="333.5" y="-237.2" font-family="Helvetica,sans-Serif" font-size="11.00" fill="#0f172a">Cleaning &amp; Normalization</text>
<text text-anchor="middle" x="333.5" y="-225.2" font-family="Helvetica,sans-Serif" font-size="11.00" fill="#0f172a">(Unicode, de&#45;hyphenation, numbers)</text>
</g>
<!-- merge&#45;&gt;clean -->
<g id="edge9" class="edge">
<title>merge&#45;&gt;clean</title>
<path fill="none" stroke="#6b7280" stroke-width="1.2" d="M333.5,-287.7C333.5,-279.14 333.5,-268.66 333.5,-259.3"/>
<polygon fill="#6b7280" stroke="#6b7280" stroke-width="1.2" points="335.95,-259.1 333.5,-252.1 331.05,-259.1 335.95,-259.1"/>
</g>
<!-- tables -->
<g id="node8" class="node">
<title>tables</title>
<path fill="#bae6fd" stroke="#334155" stroke-width="1.2" d="M352,-180C352,-180 179,-180 179,-180 173,-180 167,-174 167,-168 167,-168 167,-156 167,-156 167,-150 173,-144 179,-144 179,-144 352,-144 352,-144 358,-144 364,-150 364,-156 364,-156 364,-168 364,-168 364,-174 358,-180 352,-180"/>
<text text-anchor="middle" x="265.5" y="-165.2" font-family="Helvetica,sans-Serif" font-size="11.00" fill="#0f172a">Table Extraction &amp; Normalization</text>
<text text-anchor="middle" x="265.5" y="-153.2" font-family="Helvetica,sans-Serif" font-size="11.00" fill="#0f172a">(camelot/tabula)</text>
</g>
<!-- clean&#45;&gt;tables -->
<g id="edge10" class="edge">
<title>clean&#45;&gt;tables</title>
<path fill="none" stroke="#6b7280" stroke-width="1.2" d="M316.69,-215.7C307.8,-206.54 296.77,-195.19 287.24,-185.38"/>
<polygon fill="#6b7280" stroke="#6b7280" stroke-width="1.2" points="288.75,-183.42 282.12,-180.1 285.24,-186.83 288.75,-183.42"/>
</g>
<!-- seg -->
<g id="node9" class="node">
<title>seg</title>
<path fill="#e0f2fe" stroke="#334155" stroke-width="1.2" d="M444.5,-108C444.5,-108 222.5,-108 222.5,-108 216.5,-108 210.5,-102 210.5,-96 210.5,-96 210.5,-84 210.5,-84 210.5,-78 216.5,-72 222.5,-72 222.5,-72 444.5,-72 444.5,-72 450.5,-72 456.5,-78 456.5,-84 456.5,-84 456.5,-96 456.5,-96 456.5,-102 450.5,-108 444.5,-108"/>
<text text-anchor="middle" x="333.5" y="-93.2" font-family="Helvetica,sans-Serif" font-size="11.00" fill="#0f172a">Segmentation</text>
<text text-anchor="middle" x="333.5" y="-81.2" font-family="Helvetica,sans-Serif" font-size="11.00" fill="#0f172a">(sections, paragraphs, sentences, tables)</text>
</g>
<!-- clean&#45;&gt;seg -->
<g id="edge11" class="edge">
<title>clean&#45;&gt;seg</title>
<path fill="none" stroke="#6b7280" stroke-width="1.2" d="M352.54,-215.84C361.68,-206.3 371.67,-193.62 376.5,-180 381.85,-164.92 381.85,-159.08 376.5,-144 372.5,-132.72 364.96,-122.09 357.3,-113.35"/>
<polygon fill="#6b7280" stroke="#6b7280" stroke-width="1.2" points="359.08,-111.67 352.54,-108.16 355.47,-114.98 359.08,-111.67"/>
</g>
<!-- tables&#45;&gt;seg -->
<g id="edge12" class="edge">
<title>tables&#45;&gt;seg</title>
<path fill="none" stroke="#6b7280" stroke-width="1.2" d="M282.31,-143.7C291.2,-134.54 302.23,-123.19 311.76,-113.38"/>
<polygon fill="#6b7280" stroke="#6b7280" stroke-width="1.2" points="313.76,-114.83 316.88,-108.1 310.25,-111.42 313.76,-114.83"/>
</g>
<!-- off -->
<g id="node10" class="node">
<title>off</title>
<path fill="#fde68a" stroke="#334155" stroke-width="1.2" d="M390,-36C390,-36 277,-36 277,-36 271,-36 265,-30 265,-24 265,-24 265,-12 265,-12 265,-6 271,0 277,0 277,0 390,0 390,0 396,0 402,-6 402,-12 402,-12 402,-24 402,-24 402,-30 396,-36 390,-36"/>
<text text-anchor="middle" x="333.5" y="-21.2" font-family="Helvetica,sans-Serif" font-size="11.00" fill="#0f172a">Offsets &amp; Provenance</text>
<text text-anchor="middle" x="333.5" y="-9.2" font-family="Helvetica,sans-Serif" font-size="11.00" fill="#0f172a">(start/end/page/bbox)</text>
</g>
<!-- seg&#45;&gt;off -->
<g id="edge13" class="edge">
<title>seg&#45;&gt;off</title>
<path fill="none" stroke="#6b7280" stroke-width="1.2" d="M333.5,-71.7C333.5,-63.14 333.5,-52.66 333.5,-43.3"/>
<polygon fill="#6b7280" stroke="#6b7280" stroke-width="1.2" points="335.95,-43.1 333.5,-36.1 331.05,-43.1 335.95,-43.1"/>
</g>
</g>
</svg>
